<?xml version="1.0" encoding="utf-8" standalone="no"?>
<!DOCTYPE svg PUBLIC "-//W3C//DTD SVG 1.1//EN"
  "http://www.w3.org/Graphics/SVG/1.1/DTD/svg11.dtd">
<svg xmlns:xlink="http://www.w3.org/1999/xlink" width="1330.56pt" height="576pt" viewBox="0 0 1330.56 576" xmlns="http://www.w3.org/2000/svg" version="1.1">
 <metadata>
  <rdf:RDF xmlns:dc="http://purl.org/dc/elements/1.1/" xmlns:cc="http://creativecommons.org/ns#" xmlns:rdf="http://www.w3.org/1999/02/22-rdf-syntax-ns#">
   <cc:Work>
    <dc:type rdf:resource="http://purl.org/dc/dcmitype/StillImage"/>
    <dc:date>2025-02-22T17:34:15.329311</dc:date>
    <dc:format>image/svg+xml</dc:format>
    <dc:creator>
     <cc:Agent>
      <dc:title>Matplotlib v3.7.5, https://matplotlib.org/</dc:title>
     </cc:Agent>
    </dc:creator>
   </cc:Work>
  </rdf:RDF>
 </metadata>
 <defs>
  <style type="text/css">*{stroke-linejoin: round; stroke-linecap: butt}</style>
 </defs>
 <g id="figure_1">
  <g id="patch_1">
   <path d="M 0 576 
L 1330.56 576 
L 1330.56 0 
L 0 0 
z
" style="fill: #ffffff"/>
  </g>
  <g id="axes_1">
   <g id="table_1">
    <g id="patch_2">
     <path d="M 501.4548 245.88 
L 553.014 245.88 
L 553.014 227.88 
L 501.4548 227.88 
z
" style="fill: #ffffff; stroke: #000000; stroke-linejoin: miter"/>
    </g>
    <g id="text_1">
     <!-- $\textbf{Test}$ -->
     <g transform="translate(514.781799 239.868792) scale(0.12 -0.12)">
      <defs>
       <path id="CMBX12-54" d="M 4608 4305 
L 390 4305 
L 262 2797 
L 531 2797 
C 589 3491 640 4032 1562 4032 
L 2080 4032 
L 2080 267 
L 1114 267 
L 1114 0 
C 1626 0 2285 0 2502 0 
C 2893 0 3379 0 3891 0 
L 3891 267 
L 2925 267 
L 2925 4032 
L 3437 4032 
C 4358 4032 4410 3497 4467 2797 
L 4736 2797 
L 4608 4305 
z
" transform="scale(0.015625)"/>
       <path id="CMBX12-65" d="M 2893 1408 
C 3040 1408 3078 1408 3078 1567 
C 3078 1758 3034 2233 2739 2532 
C 2470 2798 2112 2880 1741 2880 
C 742 2880 198 2233 198 1434 
C 198 545 858 -32 1824 -32 
C 2790 -32 3078 640 3078 748 
C 3078 843 2982 843 2944 843 
C 2842 843 2835 824 2797 742 
C 2630 330 2208 197 1901 197 
C 973 197 966 1053 966 1408 
L 2893 1408 
z
M 966 1593 
C 979 1852 986 2100 1120 2328 
C 1242 2531 1466 2670 1741 2670 
C 2426 2670 2483 1909 2490 1593 
L 966 1593 
z
" transform="scale(0.015625)"/>
       <path id="CMBX12-73" d="M 2413 2715 
C 2413 2836 2413 2880 2317 2880 
C 2278 2880 2266 2880 2170 2823 
C 2144 2804 2074 2759 2042 2740 
C 1862 2842 1626 2880 1395 2880 
C 1203 2880 243 2880 243 2056 
C 243 1389 1037 1250 1235 1218 
C 1408 1187 1619 1148 1645 1148 
C 1901 1091 2157 932 2157 666 
C 2157 178 1574 178 1440 178 
C 1114 178 710 279 531 896 
C 493 1023 486 1023 378 1023 
C 243 1023 243 1004 243 858 
L 243 132 
C 243 12 243 -32 339 -32 
C 384 -32 397 -32 525 70 
L 691 191 
C 979 -32 1325 -32 1440 -32 
C 1792 -32 2592 44 2592 888 
C 2592 1192 2426 1402 2298 1516 
C 2035 1731 1818 1770 1472 1833 
C 1062 1903 678 1973 678 2277 
C 678 2689 1248 2689 1382 2689 
C 2093 2689 2131 2245 2144 2087 
C 2150 2005 2202 2005 2278 2005 
C 2413 2005 2413 2024 2413 2170 
L 2413 2715 
z
" transform="scale(0.015625)"/>
       <path id="CMBX12-74" d="M 1350 2560 
L 2272 2560 
L 2272 2833 
L 1350 2833 
L 1350 4032 
L 1082 4032 
C 1075 3405 768 2776 134 2776 
L 134 2560 
L 653 2560 
L 653 789 
C 653 114 1178 -32 1638 -32 
C 2112 -32 2394 325 2394 795 
L 2394 1133 
L 2125 1133 
L 2125 802 
C 2125 381 1933 197 1734 197 
C 1350 197 1350 624 1350 770 
L 1350 2560 
z
" transform="scale(0.015625)"/>
      </defs>
      <use xlink:href="#CMBX12-54" transform="scale(0.996264)"/>
      <use xlink:href="#CMBX12-65" transform="translate(68.608395 0) scale(0.996264)"/>
      <use xlink:href="#CMBX12-73" transform="translate(119.747663 0) scale(0.996264)"/>
      <use xlink:href="#CMBX12-74" transform="translate(163.957 0) scale(0.996264)"/>
     </g>
    </g>
    <g id="patch_3">
     <path d="M 553.014 245.88 
L 707.6916 245.88 
L 707.6916 227.88 
L 553.014 227.88 
z
" style="fill: #ffffff; stroke: #000000; stroke-linejoin: miter"/>
    </g>
    <g id="text_2">
     <!-- ${x_H}_{\text{min}} - {x_H}_{\text{max}}\ (\text{mm})$ -->
     <g transform="translate(576.632673 239.868792) scale(0.12 -0.12)">
      <defs>
       <path id="CMMI12-78" d="M 3034 2606 
C 2829 2567 2752 2414 2752 2293 
C 2752 2139 2874 2088 2963 2088 
C 3155 2088 3290 2254 3290 2427 
C 3290 2695 2982 2816 2714 2816 
C 2323 2816 2106 2433 2048 2312 
C 1901 2816 1504 2816 1389 2816 
C 736 2816 390 1980 390 1839 
C 390 1814 416 1782 461 1782 
C 512 1782 525 1820 538 1846 
C 755 2555 1184 2689 1370 2689 
C 1658 2689 1715 2420 1715 2267 
C 1715 2127 1677 1980 1600 1673 
L 1382 798 
C 1286 415 1101 64 762 64 
C 730 64 570 64 435 147 
C 666 192 717 383 717 460 
C 717 588 621 664 499 664 
C 346 664 179 530 179 326 
C 179 57 480 -64 755 -64 
C 1062 -64 1280 179 1414 441 
C 1517 64 1837 -64 2074 -64 
C 2726 -64 3072 773 3072 913 
C 3072 945 3046 971 3008 971 
C 2950 971 2944 939 2925 888 
C 2752 326 2381 64 2093 64 
C 1869 64 1747 230 1747 492 
C 1747 632 1773 734 1875 1156 
L 2099 2024 
C 2195 2408 2413 2689 2707 2689 
C 2720 2689 2899 2689 3034 2606 
z
" transform="scale(0.015625)"/>
       <path id="CMMI12-48" d="M 4787 3887 
C 4845 4103 4858 4167 5312 4167 
C 5427 4167 5491 4167 5491 4282 
C 5491 4352 5434 4352 5395 4352 
C 5280 4352 5146 4352 5024 4352 
L 4269 4352 
C 4147 4352 4013 4352 3891 4352 
C 3846 4352 3770 4352 3770 4231 
C 3770 4167 3814 4167 3936 4167 
C 4320 4167 4320 4116 4320 4046 
C 4320 4034 4320 3995 4294 3900 
L 3904 2361 
L 1971 2361 
L 2355 3887 
C 2413 4103 2426 4167 2880 4167 
C 2995 4167 3059 4167 3059 4282 
C 3059 4352 3002 4352 2963 4352 
C 2848 4352 2714 4352 2592 4352 
L 1837 4352 
C 1715 4352 1581 4352 1459 4352 
C 1414 4352 1338 4352 1338 4231 
C 1338 4167 1382 4167 1504 4167 
C 1888 4167 1888 4116 1888 4046 
C 1888 4034 1888 3995 1862 3899 
L 998 472 
C 941 249 928 185 486 185 
C 339 185 294 185 294 64 
C 294 0 365 0 384 0 
C 499 0 634 0 755 0 
L 1510 0 
C 1632 0 1766 0 1888 0 
C 1939 0 2010 0 2010 121 
C 2010 185 1952 185 1856 185 
C 1466 185 1466 236 1466 300 
C 1466 307 1466 351 1478 402 
L 1920 2176 
L 3859 2176 
C 3750 1753 3424 416 3411 376 
C 3341 185 3238 185 2861 185 
C 2784 185 2726 185 2726 64 
C 2726 0 2797 0 2816 0 
C 2931 0 3066 0 3187 0 
L 3942 0 
C 4064 0 4198 0 4320 0 
C 4371 0 4442 0 4442 121 
C 4442 185 4384 185 4288 185 
C 3898 185 3898 236 3898 300 
C 3898 307 3898 351 3910 402 
L 4787 3887 
z
" transform="scale(0.015625)"/>
       <path id="CMR17-6d" d="M 4326 1933 
C 4326 2252 4269 2790 3507 2790 
C 3072 2790 2771 2496 2656 2151 
L 2650 2151 
C 2573 2676 2195 2790 1837 2790 
C 1331 2790 1069 2400 973 2144 
L 966 2144 
L 966 2790 
L 211 2720 
L 211 2554 
C 589 2554 646 2515 646 2208 
L 646 428 
C 646 184 621 153 211 153 
L 211 -13 
C 365 0 646 0 813 0 
C 979 0 1267 0 1421 -13 
L 1421 153 
C 1011 153 986 178 986 428 
L 986 1658 
C 986 2247 1344 2688 1792 2688 
C 2266 2688 2317 2266 2317 1958 
L 2317 428 
C 2317 184 2291 153 1882 153 
L 1882 -13 
C 2035 0 2317 0 2483 0 
C 2650 0 2938 0 3091 -13 
L 3091 153 
C 2682 153 2656 178 2656 428 
L 2656 1658 
C 2656 2247 3014 2688 3462 2688 
C 3936 2688 3987 2266 3987 1958 
L 3987 428 
C 3987 184 3962 153 3552 153 
L 3552 -13 
C 3706 0 3987 0 4154 0 
C 4320 0 4608 0 4762 -13 
L 4762 153 
C 4352 153 4326 178 4326 428 
L 4326 1933 
z
" transform="scale(0.015625)"/>
       <path id="CMR17-69" d="M 992 3909 
C 992 4049 877 4170 730 4170 
C 589 4170 467 4056 467 3909 
C 467 3769 582 3648 730 3648 
C 870 3648 992 3763 992 3909 
z
M 243 2706 
L 243 2541 
C 602 2541 653 2502 653 2197 
L 653 427 
C 653 184 627 153 218 153 
L 218 -13 
C 371 0 646 0 806 0 
C 960 0 1222 0 1370 -13 
L 1370 153 
C 992 153 979 191 979 420 
L 979 2776 
L 243 2706 
z
" transform="scale(0.015625)"/>
       <path id="CMR17-6e" d="M 2656 1933 
C 2656 2259 2592 2790 1837 2790 
C 1331 2790 1069 2400 973 2144 
L 966 2144 
L 966 2790 
L 211 2720 
L 211 2554 
C 589 2554 646 2515 646 2208 
L 646 428 
C 646 184 621 153 211 153 
L 211 -13 
C 365 0 646 0 813 0 
C 979 0 1267 0 1421 -13 
L 1421 153 
C 1011 153 986 178 986 428 
L 986 1658 
C 986 2247 1344 2688 1792 2688 
C 2266 2688 2317 2266 2317 1958 
L 2317 428 
C 2317 184 2291 153 1882 153 
L 1882 -13 
C 2035 0 2317 0 2483 0 
C 2650 0 2938 0 3091 -13 
L 3091 153 
C 2682 153 2656 178 2656 428 
L 2656 1933 
z
" transform="scale(0.015625)"/>
       <path id="CMSY10-0" d="M 4218 1472 
C 4326 1472 4442 1472 4442 1600 
C 4442 1728 4326 1728 4218 1728 
L 755 1728 
C 646 1728 531 1728 531 1600 
C 531 1472 646 1472 755 1472 
L 4218 1472 
z
" transform="scale(0.015625)"/>
       <path id="CMR17-61" d="M 2304 1653 
C 2304 2072 2304 2294 2035 2543 
C 1798 2752 1523 2816 1306 2816 
C 800 2816 435 2407 435 1971 
C 435 1728 627 1728 666 1728 
C 749 1728 896 1778 896 1954 
C 896 2112 774 2181 666 2181 
C 640 2181 608 2174 589 2168 
C 723 2592 1069 2714 1293 2714 
C 1613 2714 1965 2429 1965 1885 
L 1965 1600 
C 1587 1600 1133 1549 774 1357 
C 371 1133 256 813 256 570 
C 256 77 832 -64 1171 -64 
C 1523 -64 1850 139 1990 511 
C 2003 233 2182 -18 2464 -18 
C 2598 -18 2938 70 2938 567 
L 2938 920 
L 2822 920 
L 2822 562 
C 2822 178 2650 128 2566 128 
C 2304 128 2304 458 2304 738 
L 2304 1653 
z
M 1965 870 
C 1965 317 1568 38 1216 38 
C 896 38 646 275 646 570 
C 646 761 730 1100 1101 1305 
C 1408 1478 1760 1504 1965 1504 
L 1965 870 
z
" transform="scale(0.015625)"/>
       <path id="CMR17-78" d="M 1664 1477 
C 1856 1726 2074 2006 2253 2216 
C 2464 2458 2707 2560 2989 2560 
L 2989 2726 
C 2880 2726 2656 2726 2541 2726 
C 2368 2726 2170 2726 2022 2732 
L 2022 2566 
C 2112 2553 2163 2489 2163 2400 
C 2163 2285 2099 2215 2067 2171 
L 1594 1573 
L 1030 2306 
C 973 2376 973 2388 973 2420 
C 973 2497 1037 2560 1146 2560 
L 1146 2732 
C 992 2726 717 2726 557 2726 
C 384 2726 179 2726 38 2732 
L 38 2560 
C 384 2560 461 2534 614 2343 
L 1350 1395 
C 1363 1382 1395 1344 1395 1325 
C 1395 1299 838 619 768 530 
C 480 185 179 160 6 160 
L 6 0 
C 115 0 339 0 454 0 
C 582 0 864 0 979 -6 
L 979 160 
C 941 166 838 179 838 325 
C 838 440 890 510 947 586 
L 1478 1236 
L 2035 512 
C 2086 442 2163 346 2163 301 
C 2163 211 2086 160 1984 160 
L 1984 -6 
C 2138 0 2413 0 2573 0 
C 2746 0 2950 0 3091 -6 
L 3091 160 
C 2771 160 2675 172 2522 370 
L 1664 1477 
z
" transform="scale(0.015625)"/>
       <path id="CMR17-28" d="M 1958 -1561 
C 1958 -1555 1958 -1542 1939 -1523 
C 1645 -1224 858 -407 858 1581 
C 858 3569 1632 4379 1946 4697 
C 1946 4704 1958 4717 1958 4736 
C 1958 4755 1939 4768 1914 4768 
C 1843 4768 1299 4296 986 3594 
C 666 2887 576 2199 576 1588 
C 576 1128 621 351 1005 -471 
C 1312 -1135 1837 -1600 1914 -1600 
C 1946 -1600 1958 -1587 1958 -1561 
z
" transform="scale(0.015625)"/>
       <path id="CMR17-29" d="M 1683 1581 
C 1683 2040 1638 2817 1254 3639 
C 947 4303 422 4768 346 4768 
C 326 4768 301 4761 301 4729 
C 301 4717 307 4710 314 4697 
C 621 4378 1402 3568 1402 1584 
C 1402 -407 627 -1217 314 -1537 
C 307 -1549 301 -1556 301 -1568 
C 301 -1600 326 -1600 346 -1600 
C 416 -1600 960 -1128 1274 -426 
C 1594 281 1683 969 1683 1581 
z
" transform="scale(0.015625)"/>
      </defs>
      <use xlink:href="#CMMI12-78" transform="scale(0.996264)"/>
      <use xlink:href="#CMMI12-48" transform="translate(55.43406 -14.943915) scale(0.697382)"/>
      <use xlink:href="#CMR17-6d" transform="translate(117.89715 -18.430823) scale(0.697382)"/>
      <use xlink:href="#CMR17-69" transform="translate(171.740616 -18.430823) scale(0.697382)"/>
      <use xlink:href="#CMR17-6e" transform="translate(189.150275 -18.430823) scale(0.697382)"/>
      <use xlink:href="#CMSY10-0" transform="translate(247.414222 0) scale(0.996264)"/>
      <use xlink:href="#CMMI12-78" transform="translate(347.040897 0) scale(0.996264)"/>
      <use xlink:href="#CMMI12-48" transform="translate(402.474957 -14.943915) scale(0.697382)"/>
      <use xlink:href="#CMR17-6d" transform="translate(464.938047 -18.430823) scale(0.697382)"/>
      <use xlink:href="#CMR17-61" transform="translate(518.781513 -18.430823) scale(0.697382)"/>
      <use xlink:href="#CMR17-78" transform="translate(550.764695 -18.430823) scale(0.697382)"/>
      <use xlink:href="#CMR17-28" transform="translate(615.143681 0) scale(0.996264)"/>
      <use xlink:href="#CMR17-6d" transform="translate(650.424449 0) scale(0.996264)"/>
      <use xlink:href="#CMR17-6d" transform="translate(727.344039 0) scale(0.996264)"/>
      <use xlink:href="#CMR17-29" transform="translate(804.263629 0) scale(0.996264)"/>
     </g>
    </g>
    <g id="patch_4">
     <path d="M 707.6916 245.88 
L 862.3692 245.88 
L 862.3692 227.88 
L 707.6916 227.88 
z
" style="fill: #ffffff; stroke: #000000; stroke-linejoin: miter"/>
    </g>
    <g id="text_3">
     <!-- ${z_H}_{\text{min}} - {z_H}_{\text{max}}\ (\text{mm})$ -->
     <g transform="translate(732.52447 239.868792) scale(0.12 -0.12)">
      <defs>
       <path id="CMMI12-7a" d="M 813 486 
C 1088 803 1312 1004 1632 1296 
C 2016 1632 2182 1793 2272 1891 
C 2720 2338 2944 2713 2944 2764 
C 2944 2816 2893 2816 2880 2816 
C 2835 2816 2822 2793 2790 2750 
C 2630 2494 2477 2367 2310 2367 
C 2176 2367 2106 2421 1984 2565 
C 1850 2715 1741 2816 1555 2816 
C 1088 2816 806 2257 806 2128 
C 806 2108 813 2068 870 2068 
C 922 2068 928 2091 947 2133 
C 1056 2372 1363 2414 1485 2414 
C 1619 2414 1747 2376 1882 2327 
C 2125 2240 2227 2240 2291 2240 
C 2336 2240 2362 2240 2394 2246 
C 2182 1994 1837 1683 1549 1418 
L 902 816 
C 512 415 275 33 275 -12 
C 275 -51 307 -64 346 -64 
C 384 -64 390 -57 435 14 
C 538 163 742 384 979 384 
C 1114 384 1178 342 1306 193 
C 1427 61 1536 -64 1741 -64 
C 2368 -64 2726 732 2726 876 
C 2726 903 2720 942 2656 942 
C 2605 942 2598 917 2579 855 
C 2438 488 2061 338 1811 338 
C 1677 338 1549 376 1414 425 
C 1158 512 1088 512 1005 512 
C 941 512 870 512 813 486 
z
" transform="scale(0.015625)"/>
      </defs>
      <use xlink:href="#CMMI12-7a" transform="scale(0.996264)"/>
      <use xlink:href="#CMMI12-48" transform="translate(45.315753 -14.943915) scale(0.697382)"/>
      <use xlink:href="#CMR17-6d" transform="translate(107.778843 -18.430823) scale(0.697382)"/>
      <use xlink:href="#CMR17-69" transform="translate(161.62231 -18.430823) scale(0.697382)"/>
      <use xlink:href="#CMR17-6e" transform="translate(179.031969 -18.430823) scale(0.697382)"/>
      <use xlink:href="#CMSY10-0" transform="translate(237.295916 0) scale(0.996264)"/>
      <use xlink:href="#CMMI12-7a" transform="translate(336.922591 0) scale(0.996264)"/>
      <use xlink:href="#CMMI12-48" transform="translate(382.238344 -14.943915) scale(0.697382)"/>
      <use xlink:href="#CMR17-6d" transform="translate(444.701434 -18.430823) scale(0.697382)"/>
      <use xlink:href="#CMR17-61" transform="translate(498.544901 -18.430823) scale(0.697382)"/>
      <use xlink:href="#CMR17-78" transform="translate(530.528083 -18.430823) scale(0.697382)"/>
      <use xlink:href="#CMR17-28" transform="translate(594.907068 0) scale(0.996264)"/>
      <use xlink:href="#CMR17-6d" transform="translate(630.187836 0) scale(0.996264)"/>
      <use xlink:href="#CMR17-6d" transform="translate(707.107426 0) scale(0.996264)"/>
      <use xlink:href="#CMR17-29" transform="translate(784.027016 0) scale(0.996264)"/>
     </g>
    </g>
    <g id="patch_5">
     <path d="M 501.4548 263.88 
L 553.014 263.88 
L 553.014 245.88 
L 501.4548 245.88 
z
" style="fill: #ffffff; stroke: #000000; stroke-linejoin: miter"/>
    </g>
    <g id="text_4">
     <!-- 1 -->
     <g transform="translate(524.307905 257.868792) scale(0.12 -0.12)">
      <defs>
       <path id="CMR17-31" d="M 1702 4058 
C 1702 4192 1696 4192 1606 4192 
C 1357 3916 979 3827 621 3827 
C 602 3827 570 3827 563 3808 
C 557 3795 557 3782 557 3648 
C 755 3648 1088 3686 1344 3839 
L 1344 461 
C 1344 236 1331 160 781 160 
L 589 160 
L 589 0 
C 896 0 1216 0 1523 0 
C 1830 0 2150 0 2458 0 
L 2458 160 
L 2266 160 
C 1715 160 1702 230 1702 458 
L 1702 4058 
z
" transform="scale(0.015625)"/>
      </defs>
      <use xlink:href="#CMR17-31" transform="scale(0.996264)"/>
     </g>
    </g>
    <g id="patch_6">
     <path d="M 553.014 263.88 
L 707.6916 263.88 
L 707.6916 245.88 
L 553.014 245.88 
z
" style="fill: #ffffff; stroke: #000000; stroke-linejoin: miter"/>
    </g>
    <g id="text_5">
     <!-- -5.57 - 450.78 -->
     <g transform="translate(595.885191 257.868792) scale(0.12 -0.12)">
      <defs>
       <path id="CMR17-2d" d="M 1632 1216 
L 1632 1496 
L 26 1496 
L 26 1216 
L 1632 1216 
z
" transform="scale(0.015625)"/>
       <path id="CMR17-35" d="M 730 3692 
C 794 3666 1056 3584 1325 3584 
C 1920 3584 2246 3911 2432 4100 
C 2432 4157 2432 4192 2394 4192 
C 2387 4192 2374 4192 2323 4163 
C 2099 4058 1837 3973 1517 3973 
C 1325 3973 1037 3999 723 4139 
C 653 4171 640 4171 634 4171 
C 602 4171 595 4164 595 4037 
L 595 2203 
C 595 2089 595 2057 659 2057 
C 691 2057 704 2070 736 2114 
C 941 2401 1222 2522 1542 2522 
C 1766 2522 2246 2382 2246 1289 
C 2246 1085 2246 715 2054 421 
C 1894 159 1645 25 1370 25 
C 947 25 518 320 403 814 
C 429 807 480 795 506 795 
C 589 795 749 840 749 1038 
C 749 1210 627 1280 506 1280 
C 358 1280 262 1190 262 1011 
C 262 454 704 -128 1382 -128 
C 2042 -128 2669 440 2669 1264 
C 2669 2030 2170 2624 1549 2624 
C 1222 2624 947 2503 730 2274 
L 730 3692 
z
" transform="scale(0.015625)"/>
       <path id="CMR17-2e" d="M 1062 261 
C 1062 420 934 522 800 522 
C 672 522 538 420 538 261 
C 538 102 666 0 800 0 
C 928 0 1062 102 1062 261 
z
" transform="scale(0.015625)"/>
       <path id="CMR17-37" d="M 2886 3941 
L 2886 4081 
L 1382 4081 
C 634 4081 621 4165 595 4288 
L 480 4288 
L 294 3094 
L 410 3094 
C 429 3215 474 3540 550 3661 
C 589 3712 1062 3712 1171 3712 
L 2579 3712 
L 1869 2661 
C 1395 1954 1069 999 1069 165 
C 1069 89 1069 -128 1299 -128 
C 1530 -128 1530 89 1530 171 
L 1530 465 
C 1530 1508 1709 2196 2003 2636 
L 2886 3941 
z
" transform="scale(0.015625)"/>
       <path id="CMR17-34" d="M 2150 4122 
C 2150 4256 2144 4256 2029 4256 
L 128 1254 
L 128 1088 
L 1779 1088 
L 1779 457 
C 1779 224 1766 160 1318 160 
L 1197 160 
L 1197 0 
C 1402 0 1747 0 1965 0 
C 2182 0 2528 0 2733 0 
L 2733 160 
L 2611 160 
C 2163 160 2150 224 2150 457 
L 2150 1088 
L 2803 1088 
L 2803 1254 
L 2150 1254 
L 2150 4122 
z
M 1798 3703 
L 1798 1254 
L 256 1254 
L 1798 3703 
z
" transform="scale(0.015625)"/>
       <path id="CMR17-30" d="M 2688 2025 
C 2688 2416 2682 3080 2413 3591 
C 2176 4039 1798 4198 1466 4198 
C 1158 4198 768 4058 525 3597 
C 269 3118 243 2524 243 2025 
C 243 1661 250 1106 448 619 
C 723 -39 1216 -128 1466 -128 
C 1760 -128 2208 -7 2470 600 
C 2662 1042 2688 1559 2688 2025 
z
M 1466 -26 
C 1056 -26 813 325 723 812 
C 653 1188 653 1738 653 2096 
C 653 2588 653 2997 736 3387 
C 858 3929 1216 4096 1466 4096 
C 1728 4096 2067 3923 2189 3400 
C 2272 3036 2278 2607 2278 2096 
C 2278 1680 2278 1169 2202 792 
C 2067 95 1690 -26 1466 -26 
z
" transform="scale(0.015625)"/>
       <path id="CMR17-38" d="M 1741 2264 
C 2144 2467 2554 2773 2554 3263 
C 2554 3841 1990 4179 1472 4179 
C 890 4179 378 3759 378 3180 
C 378 3021 416 2747 666 2505 
C 730 2442 998 2251 1171 2130 
C 883 1983 211 1634 211 934 
C 211 279 838 -128 1459 -128 
C 2144 -128 2720 362 2720 1010 
C 2720 1590 2330 1857 2074 2029 
L 1741 2264 
z
M 902 2822 
C 851 2854 595 3051 595 3351 
C 595 3739 998 4032 1459 4032 
C 1965 4032 2336 3676 2336 3262 
C 2336 2669 1670 2331 1638 2331 
C 1632 2331 1626 2331 1574 2370 
L 902 2822 
z
M 2080 1519 
C 2176 1449 2483 1240 2483 851 
C 2483 381 2010 25 1472 25 
C 890 25 448 438 448 940 
C 448 1443 838 1862 1280 2060 
L 2080 1519 
z
" transform="scale(0.015625)"/>
      </defs>
      <use xlink:href="#CMR17-2d" transform="scale(0.996264)"/>
      <use xlink:href="#CMR17-35" transform="translate(30.075966 0) scale(0.996264)"/>
      <use xlink:href="#CMR17-2e" transform="translate(75.766443 0) scale(0.996264)"/>
      <use xlink:href="#CMR17-35" transform="translate(100.637502 0) scale(0.996264)"/>
      <use xlink:href="#CMR17-37" transform="translate(146.327979 0) scale(0.996264)"/>
      <use xlink:href="#CMR17-2d" transform="translate(222.094423 0) scale(0.996264)"/>
      <use xlink:href="#CMR17-34" transform="translate(282.246355 0) scale(0.996264)"/>
      <use xlink:href="#CMR17-35" transform="translate(327.936832 0) scale(0.996264)"/>
      <use xlink:href="#CMR17-30" transform="translate(373.627309 0) scale(0.996264)"/>
      <use xlink:href="#CMR17-2e" transform="translate(419.317787 0) scale(0.996264)"/>
      <use xlink:href="#CMR17-37" transform="translate(444.188845 0) scale(0.996264)"/>
      <use xlink:href="#CMR17-38" transform="translate(489.879322 0) scale(0.996264)"/>
     </g>
    </g>
    <g id="patch_7">
     <path d="M 707.6916 263.88 
L 862.3692 263.88 
L 862.3692 245.88 
L 707.6916 245.88 
z
" style="fill: #ffffff; stroke: #000000; stroke-linejoin: miter"/>
    </g>
    <g id="text_6">
     <!-- 336.25 - 536.02 -->
     <g transform="translate(746.660797 257.868792) scale(0.12 -0.12)">
      <defs>
       <path id="CMR17-33" d="M 1414 2157 
C 1984 2157 2234 1662 2234 1090 
C 2234 320 1824 25 1453 25 
C 1114 25 563 194 390 693 
C 422 680 454 680 486 680 
C 640 680 755 782 755 948 
C 755 1133 614 1216 486 1216 
C 378 1216 211 1165 211 926 
C 211 335 787 -128 1466 -128 
C 2176 -128 2720 430 2720 1085 
C 2720 1707 2208 2157 1600 2227 
C 2086 2328 2554 2756 2554 3329 
C 2554 3820 2048 4179 1472 4179 
C 890 4179 378 3829 378 3329 
C 378 3110 544 3072 627 3072 
C 762 3072 877 3155 877 3321 
C 877 3486 762 3569 627 3569 
C 602 3569 570 3569 544 3557 
C 730 3959 1235 4032 1459 4032 
C 1683 4032 2106 3925 2106 3320 
C 2106 3143 2080 2828 1862 2550 
C 1670 2304 1453 2304 1242 2284 
C 1210 2284 1062 2269 1037 2269 
C 992 2263 966 2257 966 2208 
C 966 2163 973 2157 1101 2157 
L 1414 2157 
z
" transform="scale(0.015625)"/>
       <path id="CMR17-36" d="M 678 2176 
C 678 3690 1395 4032 1811 4032 
C 1946 4032 2272 4009 2400 3776 
C 2298 3776 2106 3776 2106 3553 
C 2106 3381 2246 3323 2336 3323 
C 2394 3323 2566 3348 2566 3560 
C 2566 3954 2246 4179 1805 4179 
C 1043 4179 243 3390 243 1984 
C 243 253 966 -128 1478 -128 
C 2099 -128 2688 427 2688 1283 
C 2688 2081 2170 2662 1517 2662 
C 1126 2662 838 2407 678 1960 
L 678 2176 
z
M 1478 25 
C 691 25 691 1200 691 1436 
C 691 1896 909 2560 1504 2560 
C 1613 2560 1926 2560 2138 2120 
C 2253 1870 2253 1609 2253 1289 
C 2253 944 2253 690 2118 434 
C 1978 171 1773 25 1478 25 
z
" transform="scale(0.015625)"/>
       <path id="CMR17-32" d="M 2669 989 
L 2554 989 
C 2490 536 2438 459 2413 420 
C 2381 369 1920 369 1830 369 
L 602 369 
C 832 619 1280 1072 1824 1597 
C 2214 1967 2669 2402 2669 3035 
C 2669 3790 2067 4224 1395 4224 
C 691 4224 262 3604 262 3030 
C 262 2780 448 2748 525 2748 
C 589 2748 781 2787 781 3010 
C 781 3207 614 3264 525 3264 
C 486 3264 448 3258 422 3245 
C 544 3790 915 4058 1306 4058 
C 1862 4058 2227 3617 2227 3035 
C 2227 2479 1901 2000 1536 1584 
L 262 146 
L 262 0 
L 2515 0 
L 2669 989 
z
" transform="scale(0.015625)"/>
      </defs>
      <use xlink:href="#CMR17-33" transform="scale(0.996264)"/>
      <use xlink:href="#CMR17-33" transform="translate(45.690477 0) scale(0.996264)"/>
      <use xlink:href="#CMR17-36" transform="translate(91.380954 0) scale(0.996264)"/>
      <use xlink:href="#CMR17-2e" transform="translate(137.071431 0) scale(0.996264)"/>
      <use xlink:href="#CMR17-32" transform="translate(161.94249 0) scale(0.996264)"/>
      <use xlink:href="#CMR17-35" transform="translate(207.632967 0) scale(0.996264)"/>
      <use xlink:href="#CMR17-2d" transform="translate(283.39941 0) scale(0.996264)"/>
      <use xlink:href="#CMR17-35" transform="translate(343.551343 0) scale(0.996264)"/>
      <use xlink:href="#CMR17-33" transform="translate(389.24182 0) scale(0.996264)"/>
      <use xlink:href="#CMR17-36" transform="translate(434.932297 0) scale(0.996264)"/>
      <use xlink:href="#CMR17-2e" transform="translate(480.622774 0) scale(0.996264)"/>
      <use xlink:href="#CMR17-30" transform="translate(505.493833 0) scale(0.996264)"/>
      <use xlink:href="#CMR17-32" transform="translate(551.18431 0) scale(0.996264)"/>
     </g>
    </g>
    <g id="patch_8">
     <path d="M 501.4548 281.88 
L 553.014 281.88 
L 553.014 263.88 
L 501.4548 263.88 
z
" style="fill: #ffffff; stroke: #000000; stroke-linejoin: miter"/>
    </g>
    <g id="text_7">
     <!-- 2 -->
     <g transform="translate(524.307905 275.868792) scale(0.12 -0.12)">
      <use xlink:href="#CMR17-32" transform="scale(0.996264)"/>
     </g>
    </g>
    <g id="patch_9">
     <path d="M 553.014 281.88 
L 707.6916 281.88 
L 707.6916 263.88 
L 553.014 263.88 
z
" style="fill: #ffffff; stroke: #000000; stroke-linejoin: miter"/>
    </g>
    <g id="text_8">
     <!-- 34.48 - 387.61 -->
     <g transform="translate(594.909692 275.868792) scale(0.12 -0.12)">
      <use xlink:href="#CMR17-33" transform="scale(0.996264)"/>
      <use xlink:href="#CMR17-34" transform="translate(45.690477 0) scale(0.996264)"/>
      <use xlink:href="#CMR17-2e" transform="translate(91.380954 0) scale(0.996264)"/>
      <use xlink:href="#CMR17-34" transform="translate(116.252013 0) scale(0.996264)"/>
      <use xlink:href="#CMR17-38" transform="translate(161.94249 0) scale(0.996264)"/>
      <use xlink:href="#CMR17-2d" transform="translate(237.708933 0) scale(0.996264)"/>
      <use xlink:href="#CMR17-33" transform="translate(297.860866 0) scale(0.996264)"/>
      <use xlink:href="#CMR17-38" transform="translate(343.551343 0) scale(0.996264)"/>
      <use xlink:href="#CMR17-37" transform="translate(389.24182 0) scale(0.996264)"/>
      <use xlink:href="#CMR17-2e" transform="translate(434.932297 0) scale(0.996264)"/>
      <use xlink:href="#CMR17-36" transform="translate(459.803356 0) scale(0.996264)"/>
      <use xlink:href="#CMR17-31" transform="translate(505.493833 0) scale(0.996264)"/>
     </g>
    </g>
    <g id="patch_10">
     <path d="M 707.6916 281.88 
L 862.3692 281.88 
L 862.3692 263.88 
L 707.6916 263.88 
z
" style="fill: #ffffff; stroke: #000000; stroke-linejoin: miter"/>
    </g>
    <g id="text_9">
     <!-- 276.10 - 520.44 -->
     <g transform="translate(746.660797 275.868792) scale(0.12 -0.12)">
      <use xlink:href="#CMR17-32" transform="scale(0.996264)"/>
      <use xlink:href="#CMR17-37" transform="translate(45.690477 0) scale(0.996264)"/>
      <use xlink:href="#CMR17-36" transform="translate(91.380954 0) scale(0.996264)"/>
      <use xlink:href="#CMR17-2e" transform="translate(137.071431 0) scale(0.996264)"/>
      <use xlink:href="#CMR17-31" transform="translate(161.94249 0) scale(0.996264)"/>
      <use xlink:href="#CMR17-30" transform="translate(207.632967 0) scale(0.996264)"/>
      <use xlink:href="#CMR17-2d" transform="translate(283.39941 0) scale(0.996264)"/>
      <use xlink:href="#CMR17-35" transform="translate(343.551343 0) scale(0.996264)"/>
      <use xlink:href="#CMR17-32" transform="translate(389.24182 0) scale(0.996264)"/>
      <use xlink:href="#CMR17-30" transform="translate(434.932297 0) scale(0.996264)"/>
      <use xlink:href="#CMR17-2e" transform="translate(480.622774 0) scale(0.996264)"/>
      <use xlink:href="#CMR17-34" transform="translate(505.493833 0) scale(0.996264)"/>
      <use xlink:href="#CMR17-34" transform="translate(551.18431 0) scale(0.996264)"/>
     </g>
    </g>
    <g id="patch_11">
     <path d="M 501.4548 299.88 
L 553.014 299.88 
L 553.014 281.88 
L 501.4548 281.88 
z
" style="fill: #ffffff; stroke: #000000; stroke-linejoin: miter"/>
    </g>
    <g id="text_10">
     <!-- 3 -->
     <g transform="translate(524.307905 293.868792) scale(0.12 -0.12)">
      <use xlink:href="#CMR17-33" transform="scale(0.996264)"/>
     </g>
    </g>
    <g id="patch_12">
     <path d="M 553.014 299.88 
L 707.6916 299.88 
L 707.6916 281.88 
L 553.014 281.88 
z
" style="fill: #ffffff; stroke: #000000; stroke-linejoin: miter"/>
    </g>
    <g id="text_11">
     <!-- 64.27 - 458.47 -->
     <g transform="translate(594.909692 293.868792) scale(0.12 -0.12)">
      <use xlink:href="#CMR17-36" transform="scale(0.996264)"/>
      <use xlink:href="#CMR17-34" transform="translate(45.690477 0) scale(0.996264)"/>
      <use xlink:href="#CMR17-2e" transform="translate(91.380954 0) scale(0.996264)"/>
      <use xlink:href="#CMR17-32" transform="translate(116.252013 0) scale(0.996264)"/>
      <use xlink:href="#CMR17-37" transform="translate(161.94249 0) scale(0.996264)"/>
      <use xlink:href="#CMR17-2d" transform="translate(237.708933 0) scale(0.996264)"/>
      <use xlink:href="#CMR17-34" transform="translate(297.860866 0) scale(0.996264)"/>
      <use xlink:href="#CMR17-35" transform="translate(343.551343 0) scale(0.996264)"/>
      <use xlink:href="#CMR17-38" transform="translate(389.24182 0) scale(0.996264)"/>
      <use xlink:href="#CMR17-2e" transform="translate(434.932297 0) scale(0.996264)"/>
      <use xlink:href="#CMR17-34" transform="translate(459.803356 0) scale(0.996264)"/>
      <use xlink:href="#CMR17-37" transform="translate(505.493833 0) scale(0.996264)"/>
     </g>
    </g>
    <g id="patch_13">
     <path d="M 707.6916 299.88 
L 862.3692 299.88 
L 862.3692 281.88 
L 707.6916 281.88 
z
" style="fill: #ffffff; stroke: #000000; stroke-linejoin: miter"/>
    </g>
    <g id="text_12">
     <!-- 381.31 - 521.11 -->
     <g transform="translate(746.660797 293.868792) scale(0.12 -0.12)">
      <use xlink:href="#CMR17-33" transform="scale(0.996264)"/>
      <use xlink:href="#CMR17-38" transform="translate(45.690477 0) scale(0.996264)"/>
      <use xlink:href="#CMR17-31" transform="translate(91.380954 0) scale(0.996264)"/>
      <use xlink:href="#CMR17-2e" transform="translate(137.071431 0) scale(0.996264)"/>
      <use xlink:href="#CMR17-33" transform="translate(161.94249 0) scale(0.996264)"/>
      <use xlink:href="#CMR17-31" transform="translate(207.632967 0) scale(0.996264)"/>
      <use xlink:href="#CMR17-2d" transform="translate(283.39941 0) scale(0.996264)"/>
      <use xlink:href="#CMR17-35" transform="translate(343.551343 0) scale(0.996264)"/>
      <use xlink:href="#CMR17-32" transform="translate(389.24182 0) scale(0.996264)"/>
      <use xlink:href="#CMR17-31" transform="translate(434.932297 0) scale(0.996264)"/>
      <use xlink:href="#CMR17-2e" transform="translate(480.622774 0) scale(0.996264)"/>
      <use xlink:href="#CMR17-31" transform="translate(505.493833 0) scale(0.996264)"/>
      <use xlink:href="#CMR17-31" transform="translate(551.18431 0) scale(0.996264)"/>
     </g>
    </g>
    <g id="patch_14">
     <path d="M 501.4548 317.88 
L 553.014 317.88 
L 553.014 299.88 
L 501.4548 299.88 
z
" style="fill: #ffffff; stroke: #000000; stroke-linejoin: miter"/>
    </g>
    <g id="text_13">
     <!-- 4 -->
     <g transform="translate(524.307905 311.868792) scale(0.12 -0.12)">
      <use xlink:href="#CMR17-34" transform="scale(0.996264)"/>
     </g>
    </g>
    <g id="patch_15">
     <path d="M 553.014 317.88 
L 707.6916 317.88 
L 707.6916 299.88 
L 553.014 299.88 
z
" style="fill: #ffffff; stroke: #000000; stroke-linejoin: miter"/>
    </g>
    <g id="text_14">
     <!-- 28.39 - 431.32 -->
     <g transform="translate(594.909692 311.868792) scale(0.12 -0.12)">
      <defs>
       <path id="CMR17-39" d="M 2253 1864 
C 2253 464 1670 31 1190 31 
C 1043 31 685 31 538 294 
C 704 268 826 357 826 518 
C 826 692 685 749 595 749 
C 538 749 365 723 365 506 
C 365 71 742 -128 1203 -128 
C 1939 -128 2688 674 2688 2073 
C 2688 3817 1971 4179 1485 4179 
C 851 4179 243 3628 243 2778 
C 243 1991 762 1408 1414 1408 
C 1952 1408 2189 1903 2253 2112 
L 2253 1864 
z
M 1427 1510 
C 1254 1510 1011 1542 813 1922 
C 678 2169 678 2461 678 2771 
C 678 3146 678 3405 858 3684 
C 947 3817 1114 4032 1485 4032 
C 2240 4032 2240 2885 2240 2632 
C 2240 2182 2035 1510 1427 1510 
z
" transform="scale(0.015625)"/>
      </defs>
      <use xlink:href="#CMR17-32" transform="scale(0.996264)"/>
      <use xlink:href="#CMR17-38" transform="translate(45.690477 0) scale(0.996264)"/>
      <use xlink:href="#CMR17-2e" transform="translate(91.380954 0) scale(0.996264)"/>
      <use xlink:href="#CMR17-33" transform="translate(116.252013 0) scale(0.996264)"/>
      <use xlink:href="#CMR17-39" transform="translate(161.94249 0) scale(0.996264)"/>
      <use xlink:href="#CMR17-2d" transform="translate(237.708933 0) scale(0.996264)"/>
      <use xlink:href="#CMR17-34" transform="translate(297.860866 0) scale(0.996264)"/>
      <use xlink:href="#CMR17-33" transform="translate(343.551343 0) scale(0.996264)"/>
      <use xlink:href="#CMR17-31" transform="translate(389.24182 0) scale(0.996264)"/>
      <use xlink:href="#CMR17-2e" transform="translate(434.932297 0) scale(0.996264)"/>
      <use xlink:href="#CMR17-33" transform="translate(459.803356 0) scale(0.996264)"/>
      <use xlink:href="#CMR17-32" transform="translate(505.493833 0) scale(0.996264)"/>
     </g>
    </g>
    <g id="patch_16">
     <path d="M 707.6916 317.88 
L 862.3692 317.88 
L 862.3692 299.88 
L 707.6916 299.88 
z
" style="fill: #ffffff; stroke: #000000; stroke-linejoin: miter"/>
    </g>
    <g id="text_15">
     <!-- 288.46 - 553.21 -->
     <g transform="translate(746.660797 311.868792) scale(0.12 -0.12)">
      <use xlink:href="#CMR17-32" transform="scale(0.996264)"/>
      <use xlink:href="#CMR17-38" transform="translate(45.690477 0) scale(0.996264)"/>
      <use xlink:href="#CMR17-38" transform="translate(91.380954 0) scale(0.996264)"/>
      <use xlink:href="#CMR17-2e" transform="translate(137.071431 0) scale(0.996264)"/>
      <use xlink:href="#CMR17-34" transform="translate(161.94249 0) scale(0.996264)"/>
      <use xlink:href="#CMR17-36" transform="translate(207.632967 0) scale(0.996264)"/>
      <use xlink:href="#CMR17-2d" transform="translate(283.39941 0) scale(0.996264)"/>
      <use xlink:href="#CMR17-35" transform="translate(343.551343 0) scale(0.996264)"/>
      <use xlink:href="#CMR17-35" transform="translate(389.24182 0) scale(0.996264)"/>
      <use xlink:href="#CMR17-33" transform="translate(434.932297 0) scale(0.996264)"/>
      <use xlink:href="#CMR17-2e" transform="translate(480.622774 0) scale(0.996264)"/>
      <use xlink:href="#CMR17-32" transform="translate(505.493833 0) scale(0.996264)"/>
      <use xlink:href="#CMR17-31" transform="translate(551.18431 0) scale(0.996264)"/>
     </g>
    </g>
    <g id="patch_17">
     <path d="M 501.4548 335.88 
L 553.014 335.88 
L 553.014 317.88 
L 501.4548 317.88 
z
" style="fill: #ffffff; stroke: #000000; stroke-linejoin: miter"/>
    </g>
    <g id="text_16">
     <!-- 5 -->
     <g transform="translate(524.307905 329.868792) scale(0.12 -0.12)">
      <use xlink:href="#CMR17-35" transform="scale(0.996264)"/>
     </g>
    </g>
    <g id="patch_18">
     <path d="M 553.014 335.88 
L 707.6916 335.88 
L 707.6916 317.88 
L 553.014 317.88 
z
" style="fill: #ffffff; stroke: #000000; stroke-linejoin: miter"/>
    </g>
    <g id="text_17">
     <!-- 4.28 - 556.21 -->
     <g transform="translate(597.836187 329.868792) scale(0.12 -0.12)">
      <use xlink:href="#CMR17-34" transform="scale(0.996264)"/>
      <use xlink:href="#CMR17-2e" transform="translate(45.690477 0) scale(0.996264)"/>
      <use xlink:href="#CMR17-32" transform="translate(70.561536 0) scale(0.996264)"/>
      <use xlink:href="#CMR17-38" transform="translate(116.252013 0) scale(0.996264)"/>
      <use xlink:href="#CMR17-2d" transform="translate(192.018456 0) scale(0.996264)"/>
      <use xlink:href="#CMR17-35" transform="translate(252.170389 0) scale(0.996264)"/>
      <use xlink:href="#CMR17-35" transform="translate(297.860866 0) scale(0.996264)"/>
      <use xlink:href="#CMR17-36" transform="translate(343.551343 0) scale(0.996264)"/>
      <use xlink:href="#CMR17-2e" transform="translate(389.24182 0) scale(0.996264)"/>
      <use xlink:href="#CMR17-32" transform="translate(414.112879 0) scale(0.996264)"/>
      <use xlink:href="#CMR17-31" transform="translate(459.803356 0) scale(0.996264)"/>
     </g>
    </g>
    <g id="patch_19">
     <path d="M 707.6916 335.88 
L 862.3692 335.88 
L 862.3692 317.88 
L 707.6916 317.88 
z
" style="fill: #ffffff; stroke: #000000; stroke-linejoin: miter"/>
    </g>
    <g id="text_18">
     <!-- 283.15 - 499.44 -->
     <g transform="translate(746.660797 329.868792) scale(0.12 -0.12)">
      <use xlink:href="#CMR17-32" transform="scale(0.996264)"/>
      <use xlink:href="#CMR17-38" transform="translate(45.690477 0) scale(0.996264)"/>
      <use xlink:href="#CMR17-33" transform="translate(91.380954 0) scale(0.996264)"/>
      <use xlink:href="#CMR17-2e" transform="translate(137.071431 0) scale(0.996264)"/>
      <use xlink:href="#CMR17-31" transform="translate(161.94249 0) scale(0.996264)"/>
      <use xlink:href="#CMR17-35" transform="translate(207.632967 0) scale(0.996264)"/>
      <use xlink:href="#CMR17-2d" transform="translate(283.39941 0) scale(0.996264)"/>
      <use xlink:href="#CMR17-34" transform="translate(343.551343 0) scale(0.996264)"/>
      <use xlink:href="#CMR17-39" transform="translate(389.24182 0) scale(0.996264)"/>
      <use xlink:href="#CMR17-39" transform="translate(434.932297 0) scale(0.996264)"/>
      <use xlink:href="#CMR17-2e" transform="translate(480.622774 0) scale(0.996264)"/>
      <use xlink:href="#CMR17-34" transform="translate(505.493833 0) scale(0.996264)"/>
      <use xlink:href="#CMR17-34" transform="translate(551.18431 0) scale(0.996264)"/>
     </g>
    </g>
    <g id="patch_20">
     <path d="M 501.4548 353.88 
L 553.014 353.88 
L 553.014 335.88 
L 501.4548 335.88 
z
" style="fill: #ffffff; stroke: #000000; stroke-linejoin: miter"/>
    </g>
    <g id="text_19">
     <!-- 6 -->
     <g transform="translate(524.307905 347.868792) scale(0.12 -0.12)">
      <use xlink:href="#CMR17-36" transform="scale(0.996264)"/>
     </g>
    </g>
    <g id="patch_21">
     <path d="M 553.014 353.88 
L 707.6916 353.88 
L 707.6916 335.88 
L 553.014 335.88 
z
" style="fill: #ffffff; stroke: #000000; stroke-linejoin: miter"/>
    </g>
    <g id="text_20">
     <!-- 55.78 - 429.02 -->
     <g transform="translate(594.909692 347.868792) scale(0.12 -0.12)">
      <use xlink:href="#CMR17-35" transform="scale(0.996264)"/>
      <use xlink:href="#CMR17-35" transform="translate(45.690477 0) scale(0.996264)"/>
      <use xlink:href="#CMR17-2e" transform="translate(91.380954 0) scale(0.996264)"/>
      <use xlink:href="#CMR17-37" transform="translate(116.252013 0) scale(0.996264)"/>
      <use xlink:href="#CMR17-38" transform="translate(161.94249 0) scale(0.996264)"/>
      <use xlink:href="#CMR17-2d" transform="translate(237.708933 0) scale(0.996264)"/>
      <use xlink:href="#CMR17-34" transform="translate(297.860866 0) scale(0.996264)"/>
      <use xlink:href="#CMR17-32" transform="translate(343.551343 0) scale(0.996264)"/>
      <use xlink:href="#CMR17-39" transform="translate(389.24182 0) scale(0.996264)"/>
      <use xlink:href="#CMR17-2e" transform="translate(434.932297 0) scale(0.996264)"/>
      <use xlink:href="#CMR17-30" transform="translate(459.803356 0) scale(0.996264)"/>
      <use xlink:href="#CMR17-32" transform="translate(505.493833 0) scale(0.996264)"/>
     </g>
    </g>
    <g id="patch_22">
     <path d="M 707.6916 353.88 
L 862.3692 353.88 
L 862.3692 335.88 
L 707.6916 335.88 
z
" style="fill: #ffffff; stroke: #000000; stroke-linejoin: miter"/>
    </g>
    <g id="text_21">
     <!-- 369.75 - 577.75 -->
     <g transform="translate(746.660797 347.868792) scale(0.12 -0.12)">
      <use xlink:href="#CMR17-33" transform="scale(0.996264)"/>
      <use xlink:href="#CMR17-36" transform="translate(45.690477 0) scale(0.996264)"/>
      <use xlink:href="#CMR17-39" transform="translate(91.380954 0) scale(0.996264)"/>
      <use xlink:href="#CMR17-2e" transform="translate(137.071431 0) scale(0.996264)"/>
      <use xlink:href="#CMR17-37" transform="translate(161.94249 0) scale(0.996264)"/>
      <use xlink:href="#CMR17-35" transform="translate(207.632967 0) scale(0.996264)"/>
      <use xlink:href="#CMR17-2d" transform="translate(283.39941 0) scale(0.996264)"/>
      <use xlink:href="#CMR17-35" transform="translate(343.551343 0) scale(0.996264)"/>
      <use xlink:href="#CMR17-37" transform="translate(389.24182 0) scale(0.996264)"/>
      <use xlink:href="#CMR17-37" transform="translate(434.932297 0) scale(0.996264)"/>
      <use xlink:href="#CMR17-2e" transform="translate(480.622774 0) scale(0.996264)"/>
      <use xlink:href="#CMR17-37" transform="translate(505.493833 0) scale(0.996264)"/>
      <use xlink:href="#CMR17-35" transform="translate(551.18431 0) scale(0.996264)"/>
     </g>
    </g>
   </g>
  </g>
 </g>
</svg>
